<svg version="1.1" id="Layer_1" xmlns="http://www.w3.org/2000/svg" xmlns:xlink="http://www.w3.org/1999/xlink" x="0px" y="0px"
	 width="100%" viewBox="0 0 1200 1200" enable-background="new 0 0 1200 1200" xml:space="preserve">
<path fill="#FFFFFF" opacity="1.000000" stroke="none" 
	d="
M1056.000000,1201.000000 
	C704.000000,1201.000000 352.500000,1201.000000 1.000000,1201.000000 
	C1.000000,801.000000 1.000000,401.000000 1.000000,1.000000 
	C401.000000,1.000000 801.000000,1.000000 1201.000000,1.000000 
	C1201.000000,401.000000 1201.000000,801.000000 1201.000000,1201.000000 
	C1152.833374,1201.000000 1104.666626,1201.000000 1056.000000,1201.000000 
M621.856628,618.526672 
	C618.757935,599.672058 615.659180,580.817505 612.540405,561.840881 
	C603.906921,561.840881 595.643555,561.840881 587.257446,561.840881 
	C587.257446,600.653259 587.257446,639.188965 587.257446,677.675293 
	C592.696838,677.675293 597.763611,677.675293 603.058716,677.675293 
	C603.058716,651.731750 603.058716,626.131470 603.058716,600.531250 
	C603.384155,600.488159 603.709656,600.445068 604.035095,600.401978 
	C608.264160,626.224182 612.493164,652.046387 616.725037,677.885742 
	C622.702942,677.885742 628.178955,677.885742 634.057739,677.885742 
	C637.857910,652.384766 641.648193,626.950378 645.438416,601.515991 
	C645.869202,601.556763 646.299927,601.597595 646.730713,601.638367 
	C646.730713,626.991455 646.730713,652.344543 646.730713,677.681274 
	C652.814758,677.681274 658.388733,677.681274 663.871948,677.681274 
	C663.871948,638.893921 663.871948,600.445740 663.871948,561.567200 
	C656.216980,561.567200 648.743164,561.453186 641.280701,561.693604 
	C640.195984,561.728577 638.406921,563.334351 638.227417,564.424561 
	C636.337402,575.906250 634.719299,587.432556 633.004639,598.943237 
	C630.913574,612.980408 628.801941,627.014404 626.699219,641.049805 
	C626.316162,641.079651 625.933105,641.109497 625.550049,641.139404 
	C624.337158,633.893982 623.124268,626.648560 621.856628,618.526672 
M762.100586,638.500000 
	C762.100586,625.046570 762.100586,611.593079 762.100586,598.139648 
	C762.621826,598.087036 763.143066,598.034485 763.664307,597.981873 
	C770.821106,624.641418 777.977905,651.301025 785.044983,677.626343 
	C791.767090,677.626343 797.836243,677.626343 803.720459,677.626343 
	C803.720459,638.818665 803.720459,600.404480 803.720459,561.833130 
	C798.297058,561.833130 793.202454,561.833130 787.423523,561.833130 
	C787.423523,583.857971 787.423523,605.624756 787.423523,627.391541 
	C785.875305,625.568054 785.314941,623.669067 784.806030,621.756409 
	C779.843994,603.106201 774.926025,584.444031 769.869446,565.819519 
	C769.454041,564.289551 768.169800,561.849121 767.192932,561.801270 
	C760.116455,561.455017 753.015137,561.615356 745.901001,561.615356 
	C745.901001,600.798401 745.901001,639.245544 745.901001,677.726440 
	C751.407104,677.726440 756.661438,677.726440 762.100586,677.726440 
	C762.100586,664.789246 762.100586,652.144592 762.100586,638.500000 
M1067.219971,590.718384 
	C1066.864990,586.913269 1066.766479,583.062866 1066.103027,579.312317 
	C1064.597168,570.799377 1059.597900,564.309143 1051.160278,563.216553 
	C1038.395508,561.563660 1025.408813,561.622620 1012.464783,560.951599 
	C1012.464783,600.740295 1012.464783,639.282471 1012.464783,677.785400 
	C1018.645630,677.785400 1024.420166,677.785400 1030.681030,677.785400 
	C1030.681030,662.144592 1030.681030,646.737854 1030.681030,630.817017 
	C1032.950684,630.817017 1034.737427,630.782593 1036.522583,630.822876 
	C1044.699219,631.007507 1048.411499,634.503235 1048.869629,642.664429 
	C1049.065430,646.153198 1048.846191,649.663513 1048.965210,653.158875 
	C1049.214111,660.463501 1049.445068,667.773621 1050.000000,675.057373 
	C1050.080566,676.114563 1051.864746,677.830444 1052.935791,677.890015 
	C1058.224976,678.184387 1063.539551,678.023987 1067.931274,678.023987 
	C1067.716431,666.846558 1067.459839,656.083496 1067.317383,645.318909 
	C1067.188599,635.595276 1065.314209,626.744690 1055.394775,621.275269 
	C1062.456055,617.109253 1065.984131,611.130554 1066.728760,603.598816 
	C1067.120972,599.632996 1067.070801,595.623352 1067.219971,590.718384 
M222.353333,561.568848 
	C214.604996,561.568848 206.856659,561.568848 199.091644,561.568848 
	C199.091644,600.782288 199.091644,639.191040 199.091644,677.692017 
	C205.271271,677.692017 211.162750,677.692017 217.496078,677.692017 
	C217.496078,661.954102 217.496078,646.541687 217.496078,631.192200 
	C231.374359,629.674683 235.481979,633.182007 235.652542,646.377319 
	C235.730057,652.374695 235.552658,658.377075 235.716034,664.371033 
	C235.836929,668.806885 236.321548,673.232910 236.651138,677.759399 
	C243.462311,677.759399 249.529694,677.759399 254.599380,677.759399 
	C254.409500,667.242065 254.156143,656.967590 254.057648,646.691589 
	C253.960464,636.552124 252.533356,627.066223 242.097076,621.241272 
	C249.186890,617.004639 252.728271,611.088928 253.357681,603.489624 
	C253.659286,599.848328 253.925964,596.190979 253.932022,592.540466 
	C253.971008,569.040100 246.711472,561.729187 222.353333,561.568848 
M316.135284,667.502136 
	C317.510437,662.258118 319.972260,657.034668 320.071838,651.766479 
	C320.493195,629.473328 320.501190,607.159851 319.966766,584.870483 
	C319.846283,579.844666 317.824036,574.336975 315.135895,570.008240 
	C309.217194,560.477295 295.646759,557.170471 282.354004,560.995056 
	C272.017395,563.969055 265.073822,573.377075 264.947876,585.692383 
	C264.721527,607.828247 264.764496,629.968872 264.916870,652.105957 
	C265.003571,664.696167 271.352234,673.945129 281.620117,677.292908 
	C295.141724,681.701538 308.129517,678.208496 316.135284,667.502136 
M915.592163,661.561584 
	C907.133667,663.139893 902.421936,660.335938 902.337463,652.708557 
	C902.090088,630.387390 902.120056,608.060120 902.351562,585.738525 
	C902.417603,579.364746 906.488892,575.887939 912.150574,576.139893 
	C917.699585,576.386780 920.806152,579.764954 921.008728,586.090759 
	C921.156494,590.705505 921.037598,595.328735 921.037598,600.141968 
	C927.197083,600.141968 932.738586,600.141968 938.080444,600.141968 
	C938.080444,593.774048 938.595337,587.747681 937.901306,581.863892 
	C937.430542,577.872925 935.847351,573.725342 933.740479,570.270691 
	C928.110535,561.039612 915.053833,557.234680 902.527588,560.591492 
	C891.335938,563.590759 884.310364,572.152161 884.099548,584.913147 
	C883.719788,607.896973 883.609802,630.900513 884.136841,653.878601 
	C884.481750,668.917603 894.181824,678.183655 908.610168,678.953552 
	C925.087036,679.832764 936.163879,672.629150 937.627136,657.506165 
	C939.042297,642.880493 937.933716,628.010681 937.933716,613.231323 
	C929.848267,613.231323 921.593445,613.231323 913.186279,613.231323 
	C913.186279,618.715210 913.186279,623.932861 913.186279,629.394653 
	C915.918701,629.569336 918.337585,629.723999 920.958374,629.891479 
	C920.958374,638.091187 921.320923,646.082153 920.745239,654.004944 
	C920.564331,656.493835 917.862549,658.799561 915.592163,661.561584 
M687.718933,585.917053 
	C682.784180,616.449707 677.849426,646.982361 672.881165,677.722656 
	C678.692810,677.722656 684.247864,677.722656 689.787354,677.722656 
	C690.917969,670.588867 692.001526,663.752319 693.077515,656.963074 
	C700.801086,656.963074 707.916199,656.963074 715.386414,656.963074 
	C716.487549,663.983337 717.562134,670.833923 718.655518,677.804932 
	C724.942993,677.804932 730.867004,677.804932 737.172058,677.804932 
	C730.946960,639.018860 724.765991,600.507690 718.514771,561.558655 
	C710.585083,561.558655 702.953613,561.704346 695.332458,561.486267 
	C692.324951,561.400208 691.274780,562.461914 690.898376,565.319763 
	C690.028992,571.918457 688.861694,578.477905 687.718933,585.917053 
M820.618286,627.917480 
	C817.949890,644.456055 815.281494,660.994629 812.576538,677.760071 
	C818.348450,677.760071 823.755432,677.760071 829.393433,677.760071 
	C830.322815,671.644836 831.089539,665.724182 832.222595,659.874512 
	C832.452087,658.690063 834.030334,656.914856 835.046814,656.873047 
	C841.648193,656.601501 848.266174,656.733704 854.998169,656.733704 
	C856.152466,664.135010 857.217285,670.962463 858.267700,677.697510 
	C864.669495,677.697510 870.722961,677.697510 876.801575,677.697510 
	C870.532715,638.825928 864.316101,600.278198 858.121887,561.869568 
	C848.864136,561.869568 840.120605,561.869568 831.093323,561.869568 
	C827.633301,583.770813 824.213684,605.416382 820.618286,627.917480 
M490.108795,587.603699 
	C490.084259,586.771484 490.070404,585.938721 490.033539,585.107056 
	C489.337585,569.400391 479.786530,560.057617 463.907349,559.547302 
	C447.705811,559.026733 436.512390,567.810669 435.994415,583.561951 
	C435.212433,607.341431 435.335541,631.177612 435.968201,654.965942 
	C436.322601,668.290405 444.223846,676.203125 456.907043,678.604187 
	C470.962341,681.265137 483.381470,675.390808 487.851898,663.697083 
	C491.516937,654.110107 489.917175,644.151978 490.007965,634.386414 
	C483.993988,634.386414 478.604004,634.386414 472.793579,634.386414 
	C472.793579,640.426453 472.892578,646.067871 472.768311,651.704407 
	C472.615021,658.657166 469.397247,662.164795 463.411469,662.199280 
	C457.377869,662.234009 454.041138,658.762695 454.011963,651.833252 
	C453.920868,630.186218 453.925232,608.538452 454.004089,586.891357 
	C454.029602,579.888062 457.257568,576.276550 463.112000,576.142395 
	C469.203186,576.002747 472.599548,579.720703 472.777405,586.911926 
	C472.883392,591.195496 472.796844,595.483887 472.796844,600.021851 
	C478.808716,600.021851 484.233521,600.021851 490.143890,600.021851 
	C490.143890,596.143005 490.143890,592.355408 490.108795,587.603699 
M189.933594,584.922424 
	C188.547287,574.423218 184.266174,565.144470 173.168015,563.301208 
	C161.034988,561.285950 148.508270,561.640869 136.112656,560.960449 
	C136.112656,600.766113 136.112656,639.270752 136.112656,677.769653 
	C142.245728,677.769653 147.999939,677.769653 154.172379,677.769653 
	C154.172379,663.460815 154.172379,649.396118 154.172379,635.085327 
	C158.697433,634.886292 162.838318,634.917664 166.930099,634.484741 
	C179.925934,633.109741 187.272507,627.133057 189.183975,614.210022 
	C190.558289,604.918640 189.783478,595.309448 189.933594,584.922424 
M950.592407,632.499573 
	C950.592407,647.595459 950.592407,662.691345 950.592407,677.774292 
	C967.633362,677.774292 984.059265,677.774292 1000.572693,677.774292 
	C1000.572693,672.283447 1000.572693,667.045654 1000.572693,661.155334 
	C989.975159,661.155334 979.600464,661.155334 969.330078,661.155334 
	C969.330078,649.618835 969.330078,638.742859 969.330078,627.322266 
	C977.812622,627.322266 985.881104,627.322266 993.858948,627.322266 
	C993.858948,621.556030 993.858948,616.354553 993.858948,610.661255 
	C985.381653,610.661255 977.298950,610.661255 969.318970,610.661255 
	C969.318970,599.601135 969.318970,589.049316 969.318970,578.070435 
	C979.971741,578.070435 990.222534,578.070435 1000.521179,578.070435 
	C1000.521179,572.411804 1000.521179,567.197754 1000.521179,561.858154 
	C983.834106,561.858154 967.429016,561.858154 950.592468,561.858154 
	C950.592468,585.268188 950.592468,608.383850 950.592407,632.499573 
M420.308594,678.029053 
	C421.914886,678.029053 423.521210,678.029053 425.191650,678.029053 
	C425.191650,672.245300 425.191650,666.982666 425.191650,661.233398 
	C414.718231,661.233398 404.483337,661.233398 394.011658,661.233398 
	C394.011658,649.859863 394.011658,638.977295 394.011658,627.548950 
	C402.373444,627.548950 410.453247,627.548950 418.774261,627.548950 
	C418.774261,621.779297 418.774261,616.557434 418.774261,610.835388 
	C410.415192,610.835388 402.336060,610.835388 394.038940,610.835388 
	C394.038940,599.784790 394.038940,589.236511 394.038940,578.197937 
	C404.592072,578.197937 414.840332,578.197937 425.162079,578.197937 
	C425.162079,572.462097 425.162079,567.220520 425.162079,561.855957 
	C408.494141,561.855957 392.097626,561.855957 375.569672,561.855957 
	C375.569672,600.699097 375.569672,639.235474 375.569672,678.029053 
	C390.392792,678.029053 404.872650,678.029053 420.308594,678.029053 
M515.529053,640.499695 
	C515.529053,652.932251 515.529053,665.364807 515.529053,677.641846 
	C521.926086,677.641846 527.826111,677.641846 534.079224,677.641846 
	C534.079224,644.378967 534.079224,611.492432 534.079224,578.109131 
	C540.495483,578.109131 546.562256,578.109131 552.649109,578.109131 
	C552.649109,572.388794 552.649109,567.174194 552.649109,561.832458 
	C533.789062,561.832458 515.212646,561.832458 496.416382,561.832458 
	C496.416382,567.319214 496.416382,572.537537 496.416382,578.236816 
	C502.779449,578.236816 508.859894,578.236816 515.529297,578.236816 
	C515.529297,598.975708 515.529297,619.237671 515.529053,640.499695 
M344.271912,644.444031 
	C344.269897,659.672546 343.365234,660.636963 328.517517,661.252625 
	C328.359833,661.259216 328.205597,661.348755 327.897980,661.449036 
	C327.897980,666.812805 327.897980,672.221863 327.897980,677.588440 
	C349.836395,680.219482 360.238770,672.871338 362.625671,653.258057 
	C362.865967,651.283630 362.857361,649.271423 362.858429,647.276611 
	C362.872620,620.313416 362.871704,593.350220 362.858154,566.387024 
	C362.857452,564.941406 362.711609,563.495850 362.622711,561.854187 
	C356.414581,561.854187 350.504425,561.854187 344.271912,561.854187 
	C344.271912,589.259155 344.271912,616.359924 344.271912,644.444031 
z"/>
<path fill="#161F16" opacity="1.000000" stroke="none" 
	d="
M621.884033,618.964905 
	C623.124268,626.648560 624.337158,633.893982 625.550049,641.139404 
	C625.933105,641.109497 626.316162,641.079651 626.699219,641.049805 
	C628.801941,627.014404 630.913574,612.980408 633.004639,598.943237 
	C634.719299,587.432556 636.337402,575.906250 638.227417,564.424561 
	C638.406921,563.334351 640.195984,561.728577 641.280701,561.693604 
	C648.743164,561.453186 656.216980,561.567200 663.871948,561.567200 
	C663.871948,600.445740 663.871948,638.893921 663.871948,677.681274 
	C658.388733,677.681274 652.814758,677.681274 646.730713,677.681274 
	C646.730713,652.344543 646.730713,626.991455 646.730713,601.638367 
	C646.299927,601.597595 645.869202,601.556763 645.438416,601.515991 
	C641.648193,626.950378 637.857910,652.384766 634.057739,677.885742 
	C628.178955,677.885742 622.702942,677.885742 616.725037,677.885742 
	C612.493164,652.046387 608.264160,626.224182 604.035095,600.401978 
	C603.709656,600.445068 603.384155,600.488159 603.058716,600.531250 
	C603.058716,626.131470 603.058716,651.731750 603.058716,677.675293 
	C597.763611,677.675293 592.696838,677.675293 587.257446,677.675293 
	C587.257446,639.188965 587.257446,600.653259 587.257446,561.840881 
	C595.643555,561.840881 603.906921,561.840881 612.540405,561.840881 
	C615.659180,580.817505 618.757935,599.672058 621.884033,618.964905 
z"/>
<path fill="#161F16" opacity="1.000000" stroke="none" 
	d="
M762.100586,639.000000 
	C762.100586,652.144592 762.100586,664.789246 762.100586,677.726440 
	C756.661438,677.726440 751.407104,677.726440 745.901001,677.726440 
	C745.901001,639.245544 745.901001,600.798401 745.901001,561.615356 
	C753.015137,561.615356 760.116455,561.455017 767.192932,561.801270 
	C768.169800,561.849121 769.454041,564.289551 769.869446,565.819519 
	C774.926025,584.444031 779.843994,603.106201 784.806030,621.756409 
	C785.314941,623.669067 785.875305,625.568054 787.423523,627.391541 
	C787.423523,605.624756 787.423523,583.857971 787.423523,561.833130 
	C793.202454,561.833130 798.297058,561.833130 803.720459,561.833130 
	C803.720459,600.404480 803.720459,638.818665 803.720459,677.626343 
	C797.836243,677.626343 791.767090,677.626343 785.044983,677.626343 
	C777.977905,651.301025 770.821106,624.641418 763.664307,597.981873 
	C763.143066,598.034485 762.621826,598.087036 762.100586,598.139648 
	C762.100586,611.593079 762.100586,625.046570 762.100586,639.000000 
z"/>
<path fill="#182118" opacity="1.000000" stroke="none" 
	d="
M1067.220215,591.175903 
	C1067.070801,595.623352 1067.120972,599.632996 1066.728760,603.598816 
	C1065.984131,611.130554 1062.456055,617.109253 1055.394775,621.275269 
	C1065.314209,626.744690 1067.188599,635.595276 1067.317383,645.318909 
	C1067.459839,656.083496 1067.716431,666.846558 1067.931274,678.023987 
	C1063.539551,678.023987 1058.224976,678.184387 1052.935791,677.890015 
	C1051.864746,677.830444 1050.080566,676.114563 1050.000000,675.057373 
	C1049.445068,667.773621 1049.214111,660.463501 1048.965210,653.158875 
	C1048.846191,649.663513 1049.065430,646.153198 1048.869629,642.664429 
	C1048.411499,634.503235 1044.699219,631.007507 1036.522583,630.822876 
	C1034.737427,630.782593 1032.950684,630.817017 1030.681030,630.817017 
	C1030.681030,646.737854 1030.681030,662.144592 1030.681030,677.785400 
	C1024.420166,677.785400 1018.645630,677.785400 1012.464783,677.785400 
	C1012.464783,639.282471 1012.464783,600.740295 1012.464783,560.951599 
	C1025.408813,561.622620 1038.395508,561.563660 1051.160278,563.216553 
	C1059.597900,564.309143 1064.597168,570.799377 1066.103027,579.312317 
	C1066.766479,583.062866 1066.864990,586.913269 1067.220215,591.175903 
M1047.959839,583.935242 
	C1045.032349,578.311096 1040.862915,576.995361 1030.876343,578.714783 
	C1030.876343,590.320679 1030.876343,601.987671 1030.876343,614.052979 
	C1033.467773,614.052979 1035.764526,614.101196 1038.058594,614.043823 
	C1044.505615,613.882629 1048.040771,611.386719 1048.505615,605.082886 
	C1049.002441,598.347046 1048.309448,591.523315 1047.959839,583.935242 
z"/>
<path fill="#161F16" opacity="1.000000" stroke="none" 
	d="
M222.831818,561.568848 
	C246.711472,561.729187 253.971008,569.040100 253.932022,592.540466 
	C253.925964,596.190979 253.659286,599.848328 253.357681,603.489624 
	C252.728271,611.088928 249.186890,617.004639 242.097076,621.241272 
	C252.533356,627.066223 253.960464,636.552124 254.057648,646.691589 
	C254.156143,656.967590 254.409500,667.242065 254.599380,677.759399 
	C249.529694,677.759399 243.462311,677.759399 236.651138,677.759399 
	C236.321548,673.232910 235.836929,668.806885 235.716034,664.371033 
	C235.552658,658.377075 235.730057,652.374695 235.652542,646.377319 
	C235.481979,633.182007 231.374359,629.674683 217.496078,631.192200 
	C217.496078,646.541687 217.496078,661.954102 217.496078,677.692017 
	C211.162750,677.692017 205.271271,677.692017 199.091644,677.692017 
	C199.091644,639.191040 199.091644,600.782288 199.091644,561.568848 
	C206.856659,561.568848 214.604996,561.568848 222.831818,561.568848 
M221.598206,578.097473 
	C220.181412,578.219971 218.764618,578.342407 217.449814,578.456055 
	C217.449814,590.568054 217.449814,602.150452 217.449814,614.070251 
	C219.569870,614.070251 221.380539,614.077942 223.191147,614.068970 
	C231.839233,614.026245 234.976868,611.181213 235.462646,602.610413 
	C235.688461,598.626221 235.650528,594.617676 235.539215,590.625610 
	C235.259109,580.579163 232.727692,578.193237 221.598206,578.097473 
z"/>
<path fill="#161F16" opacity="1.000000" stroke="none" 
	d="
M315.934448,667.810181 
	C308.129517,678.208496 295.141724,681.701538 281.620117,677.292908 
	C271.352234,673.945129 265.003571,664.696167 264.916870,652.105957 
	C264.764496,629.968872 264.721527,607.828247 264.947876,585.692383 
	C265.073822,573.377075 272.017395,563.969055 282.354004,560.995056 
	C295.646759,557.170471 309.217194,560.477295 315.135895,570.008240 
	C317.824036,574.336975 319.846283,579.844666 319.966766,584.870483 
	C320.501190,607.159851 320.493195,629.473328 320.071838,651.766479 
	C319.972260,657.034668 317.510437,662.258118 315.934448,667.810181 
M302.011475,590.605774 
	C302.005646,589.607849 302.010590,588.609802 301.992279,587.612122 
	C301.850006,579.854675 298.818604,576.139282 292.620270,576.117920 
	C286.448761,576.096680 283.172302,579.979126 283.120453,587.562866 
	C283.062469,596.044861 283.104095,604.527588 283.104614,613.009949 
	C283.105438,625.982971 283.007080,638.957092 283.148743,651.928589 
	C283.231384,659.493530 287.724243,663.362305 294.569580,662.197510 
	C299.501495,661.358337 301.943085,657.986389 301.965027,651.452332 
	C302.032104,631.494080 302.003357,611.535461 302.011475,590.605774 
z"/>
<path fill="#182118" opacity="1.000000" stroke="none" 
	d="
M915.953430,661.375366 
	C917.862549,658.799561 920.564331,656.493835 920.745239,654.004944 
	C921.320923,646.082153 920.958374,638.091187 920.958374,629.891479 
	C918.337585,629.723999 915.918701,629.569336 913.186279,629.394653 
	C913.186279,623.932861 913.186279,618.715210 913.186279,613.231323 
	C921.593445,613.231323 929.848267,613.231323 937.933716,613.231323 
	C937.933716,628.010681 939.042297,642.880493 937.627136,657.506165 
	C936.163879,672.629150 925.087036,679.832764 908.610168,678.953552 
	C894.181824,678.183655 884.481750,668.917603 884.136841,653.878601 
	C883.609802,630.900513 883.719788,607.896973 884.099548,584.913147 
	C884.310364,572.152161 891.335938,563.590759 902.527588,560.591492 
	C915.053833,557.234680 928.110535,561.039612 933.740479,570.270691 
	C935.847351,573.725342 937.430542,577.872925 937.901306,581.863892 
	C938.595337,587.747681 938.080444,593.774048 938.080444,600.141968 
	C932.738586,600.141968 927.197083,600.141968 921.037598,600.141968 
	C921.037598,595.328735 921.156494,590.705505 921.008728,586.090759 
	C920.806152,579.764954 917.699585,576.386780 912.150574,576.139893 
	C906.488892,575.887939 902.417603,579.364746 902.351562,585.738525 
	C902.120056,608.060120 902.090088,630.387390 902.337463,652.708557 
	C902.421936,660.335938 907.133667,663.139893 915.953430,661.375366 
z"/>
<path fill="#182118" opacity="1.000000" stroke="none" 
	d="
M687.767090,585.485168 
	C688.861694,578.477905 690.028992,571.918457 690.898376,565.319763 
	C691.274780,562.461914 692.324951,561.400208 695.332458,561.486267 
	C702.953613,561.704346 710.585083,561.558655 718.514771,561.558655 
	C724.765991,600.507690 730.946960,639.018860 737.172058,677.804932 
	C730.867004,677.804932 724.942993,677.804932 718.655518,677.804932 
	C717.562134,670.833923 716.487549,663.983337 715.386414,656.963074 
	C707.916199,656.963074 700.801086,656.963074 693.077515,656.963074 
	C692.001526,663.752319 690.917969,670.588867 689.787354,677.722656 
	C684.247864,677.722656 678.692810,677.722656 672.881165,677.722656 
	C677.849426,646.982361 682.784180,616.449707 687.767090,585.485168 
M708.235840,640.961609 
	C709.700928,640.961609 711.166016,640.961609 712.959045,640.961609 
	C710.140259,621.879883 707.397888,603.315552 704.655579,584.751160 
	C704.289001,584.750671 703.922424,584.750183 703.555847,584.749695 
	C700.825989,603.350281 698.096069,621.950806 695.305969,640.961670 
	C699.690125,640.961670 703.495911,640.961670 708.235840,640.961609 
z"/>
<path fill="#182118" opacity="1.000000" stroke="none" 
	d="
M820.706177,627.489746 
	C824.213684,605.416382 827.633301,583.770813 831.093323,561.869568 
	C840.120605,561.869568 848.864136,561.869568 858.121887,561.869568 
	C864.316101,600.278198 870.532715,638.825928 876.801575,677.697510 
	C870.722961,677.697510 864.669495,677.697510 858.267700,677.697510 
	C857.217285,670.962463 856.152466,664.135010 854.998169,656.733704 
	C848.266174,656.733704 841.648193,656.601501 835.046814,656.873047 
	C834.030334,656.914856 832.452087,658.690063 832.222595,659.874512 
	C831.089539,665.724182 830.322815,671.644836 829.393433,677.760071 
	C823.755432,677.760071 818.348450,677.760071 812.576538,677.760071 
	C815.281494,660.994629 817.949890,644.456055 820.706177,627.489746 
M842.719543,588.537964 
	C840.120361,605.880127 837.521240,623.222290 834.913696,640.620544 
	C841.201599,640.620544 846.745483,640.620544 852.578918,640.620544 
	C849.797546,621.782654 847.073120,603.329773 844.348633,584.876953 
	C844.026123,584.904968 843.703613,584.932922 843.381165,584.960938 
	C843.200134,585.899536 843.019104,586.838196 842.719543,588.537964 
z"/>
<path fill="#182118" opacity="1.000000" stroke="none" 
	d="
M490.126343,588.085693 
	C490.143890,592.355408 490.143890,596.143005 490.143890,600.021851 
	C484.233521,600.021851 478.808716,600.021851 472.796844,600.021851 
	C472.796844,595.483887 472.883392,591.195496 472.777405,586.911926 
	C472.599548,579.720703 469.203186,576.002747 463.112000,576.142395 
	C457.257568,576.276550 454.029602,579.888062 454.004089,586.891357 
	C453.925232,608.538452 453.920868,630.186218 454.011963,651.833252 
	C454.041138,658.762695 457.377869,662.234009 463.411469,662.199280 
	C469.397247,662.164795 472.615021,658.657166 472.768311,651.704407 
	C472.892578,646.067871 472.793579,640.426453 472.793579,634.386414 
	C478.604004,634.386414 483.993988,634.386414 490.007965,634.386414 
	C489.917175,644.151978 491.516937,654.110107 487.851898,663.697083 
	C483.381470,675.390808 470.962341,681.265137 456.907043,678.604187 
	C444.223846,676.203125 436.322601,668.290405 435.968201,654.965942 
	C435.335541,631.177612 435.212433,607.341431 435.994415,583.561951 
	C436.512390,567.810669 447.705811,559.026733 463.907349,559.547302 
	C479.786530,560.057617 489.337585,569.400391 490.033539,585.107056 
	C490.070404,585.938721 490.084259,586.771484 490.126343,588.085693 
z"/>
<path fill="#161F16" opacity="1.000000" stroke="none" 
	d="
M189.950470,585.382202 
	C189.783478,595.309448 190.558289,604.918640 189.183975,614.210022 
	C187.272507,627.133057 179.925934,633.109741 166.930099,634.484741 
	C162.838318,634.917664 158.697433,634.886292 154.172379,635.085327 
	C154.172379,649.396118 154.172379,663.460815 154.172379,677.769653 
	C147.999939,677.769653 142.245728,677.769653 136.112656,677.769653 
	C136.112656,639.270752 136.112656,600.766113 136.112656,560.960449 
	C148.508270,561.640869 161.034988,561.285950 173.168015,563.301208 
	C184.266174,565.144470 188.547287,574.423218 189.950470,585.382202 
M163.117905,618.096436 
	C167.977615,617.939270 171.280487,615.514709 171.467697,610.656372 
	C171.793182,602.209839 171.705002,593.731079 171.375122,585.282104 
	C171.201370,580.832092 168.119949,578.502930 163.771271,578.213074 
	C160.686050,578.007385 157.576080,578.173157 154.406006,578.173157 
	C154.406006,591.776733 154.406006,604.783081 154.406006,618.109619 
	C157.266739,618.109619 159.741623,618.109619 163.117905,618.096436 
z"/>
<path fill="#172017" opacity="1.000000" stroke="none" 
	d="
M950.592407,631.999573 
	C950.592468,608.383850 950.592468,585.268188 950.592468,561.858154 
	C967.429016,561.858154 983.834106,561.858154 1000.521179,561.858154 
	C1000.521179,567.197754 1000.521179,572.411804 1000.521179,578.070435 
	C990.222534,578.070435 979.971741,578.070435 969.318970,578.070435 
	C969.318970,589.049316 969.318970,599.601135 969.318970,610.661255 
	C977.298950,610.661255 985.381653,610.661255 993.858948,610.661255 
	C993.858948,616.354553 993.858948,621.556030 993.858948,627.322266 
	C985.881104,627.322266 977.812622,627.322266 969.330078,627.322266 
	C969.330078,638.742859 969.330078,649.618835 969.330078,661.155334 
	C979.600464,661.155334 989.975159,661.155334 1000.572693,661.155334 
	C1000.572693,667.045654 1000.572693,672.283447 1000.572693,677.774292 
	C984.059265,677.774292 967.633362,677.774292 950.592407,677.774292 
	C950.592407,662.691345 950.592407,647.595459 950.592407,631.999573 
z"/>
<path fill="#1A231A" opacity="1.000000" stroke="none" 
	d="
M419.830536,678.029053 
	C404.872650,678.029053 390.392792,678.029053 375.569672,678.029053 
	C375.569672,639.235474 375.569672,600.699097 375.569672,561.855957 
	C392.097626,561.855957 408.494141,561.855957 425.162079,561.855957 
	C425.162079,567.220520 425.162079,572.462097 425.162079,578.197937 
	C414.840332,578.197937 404.592072,578.197937 394.038940,578.197937 
	C394.038940,589.236511 394.038940,599.784790 394.038940,610.835388 
	C402.336060,610.835388 410.415192,610.835388 418.774261,610.835388 
	C418.774261,616.557434 418.774261,621.779297 418.774261,627.548950 
	C410.453247,627.548950 402.373444,627.548950 394.011658,627.548950 
	C394.011658,638.977295 394.011658,649.859863 394.011658,661.233398 
	C404.483337,661.233398 414.718231,661.233398 425.191650,661.233398 
	C425.191650,666.982666 425.191650,672.245300 425.191650,678.029053 
	C423.521210,678.029053 421.914886,678.029053 419.830536,678.029053 
z"/>
<path fill="#161F16" opacity="1.000000" stroke="none" 
	d="
M515.529175,639.999634 
	C515.529297,619.237671 515.529297,598.975708 515.529297,578.236816 
	C508.859894,578.236816 502.779449,578.236816 496.416382,578.236816 
	C496.416382,572.537537 496.416382,567.319214 496.416382,561.832458 
	C515.212646,561.832458 533.789062,561.832458 552.649109,561.832458 
	C552.649109,567.174194 552.649109,572.388794 552.649109,578.109131 
	C546.562256,578.109131 540.495483,578.109131 534.079224,578.109131 
	C534.079224,611.492432 534.079224,644.378967 534.079224,677.641846 
	C527.826111,677.641846 521.926086,677.641846 515.529053,677.641846 
	C515.529053,665.364807 515.529053,652.932251 515.529175,639.999634 
z"/>
<path fill="#1B231B" opacity="1.000000" stroke="none" 
	d="
M344.271912,643.952332 
	C344.271912,616.359924 344.271912,589.259155 344.271912,561.854187 
	C350.504425,561.854187 356.414581,561.854187 362.622711,561.854187 
	C362.711609,563.495850 362.857452,564.941406 362.858154,566.387024 
	C362.871704,593.350220 362.872620,620.313416 362.858429,647.276611 
	C362.857361,649.271423 362.865967,651.283630 362.625671,653.258057 
	C360.238770,672.871338 349.836395,680.219482 327.897980,677.588440 
	C327.897980,672.221863 327.897980,666.812805 327.897980,661.449036 
	C328.205597,661.348755 328.359833,661.259216 328.517517,661.252625 
	C343.365234,660.636963 344.269897,659.672546 344.271912,643.952332 
z"/>
<path fill="#FBFBFB" opacity="1.000000" stroke="none" 
	d="
M1048.047852,584.336609 
	C1048.309448,591.523315 1049.002441,598.347046 1048.505615,605.082886 
	C1048.040771,611.386719 1044.505615,613.882629 1038.058594,614.043823 
	C1035.764526,614.101196 1033.467773,614.052979 1030.876343,614.052979 
	C1030.876343,601.987671 1030.876343,590.320679 1030.876343,578.714783 
	C1040.862915,576.995361 1045.032349,578.311096 1048.047852,584.336609 
z"/>
<path fill="#F8F8F8" opacity="1.000000" stroke="none" 
	d="
M222.052475,578.097351 
	C232.727692,578.193237 235.259109,580.579163 235.539215,590.625610 
	C235.650528,594.617676 235.688461,598.626221 235.462646,602.610413 
	C234.976868,611.181213 231.839233,614.026245 223.191147,614.068970 
	C221.380539,614.077942 219.569870,614.070251 217.449814,614.070251 
	C217.449814,602.150452 217.449814,590.568054 217.449814,578.456055 
	C218.764618,578.342407 220.181412,578.219971 222.052475,578.097351 
z"/>
<path fill="#FBFBFB" opacity="1.000000" stroke="none" 
	d="
M302.011688,591.091431 
	C302.003357,611.535461 302.032104,631.494080 301.965027,651.452332 
	C301.943085,657.986389 299.501495,661.358337 294.569580,662.197510 
	C287.724243,663.362305 283.231384,659.493530 283.148743,651.928589 
	C283.007080,638.957092 283.105438,625.982971 283.104614,613.009949 
	C283.104095,604.527588 283.062469,596.044861 283.120453,587.562866 
	C283.172302,579.979126 286.448761,576.096680 292.620270,576.117920 
	C298.818604,576.139282 301.850006,579.854675 301.992279,587.612122 
	C302.010590,588.609802 302.005646,589.607849 302.011688,591.091431 
z"/>
<path fill="#F8F8F8" opacity="1.000000" stroke="none" 
	d="
M707.768738,640.961670 
	C703.495911,640.961670 699.690125,640.961670 695.305969,640.961670 
	C698.096069,621.950806 700.825989,603.350281 703.555847,584.749695 
	C703.922424,584.750183 704.289001,584.750671 704.655579,584.751160 
	C707.397888,603.315552 710.140259,621.879883 712.959045,640.961609 
	C711.166016,640.961609 709.700928,640.961609 707.768738,640.961670 
z"/>
<path fill="#F8F8F8" opacity="1.000000" stroke="none" 
	d="
M842.778809,588.157349 
	C843.019104,586.838196 843.200134,585.899536 843.381165,584.960938 
	C843.703613,584.932922 844.026123,584.904968 844.348633,584.876953 
	C847.073120,603.329773 849.797546,621.782654 852.578918,640.620544 
	C846.745483,640.620544 841.201599,640.620544 834.913696,640.620544 
	C837.521240,623.222290 840.120361,605.880127 842.778809,588.157349 
z"/>
<path fill="#F8F8F8" opacity="1.000000" stroke="none" 
	d="
M162.667206,618.103027 
	C159.741623,618.109619 157.266739,618.109619 154.406006,618.109619 
	C154.406006,604.783081 154.406006,591.776733 154.406006,578.173157 
	C157.576080,578.173157 160.686050,578.007385 163.771271,578.213074 
	C168.119949,578.502930 171.201370,580.832092 171.375122,585.282104 
	C171.705002,593.731079 171.793182,602.209839 171.467697,610.656372 
	C171.280487,615.514709 167.977615,617.939270 162.667206,618.103027 
z"/>
</svg>