<svg version="1.1" id="Layer_1" xmlns="http://www.w3.org/2000/svg" xmlns:xlink="http://www.w3.org/1999/xlink" x="0px" y="0px"
	 width="100%" viewBox="0 0 1200 1200" enable-background="new 0 0 1200 1200" xml:space="preserve">
<path fill="#000000" opacity="1.000000" stroke="none" 
	d="
M1056.000000,1201.000000 
	C704.000000,1201.000000 352.500000,1201.000000 1.000000,1201.000000 
	C1.000000,801.000000 1.000000,401.000000 1.000000,1.000000 
	C401.000000,1.000000 801.000000,1.000000 1201.000000,1.000000 
	C1201.000000,401.000000 1201.000000,801.000000 1201.000000,1201.000000 
	C1152.833374,1201.000000 1104.666626,1201.000000 1056.000000,1201.000000 
M363.420898,651.234924 
	C363.608032,649.756104 363.956421,648.277466 363.958344,646.798401 
	C363.992188,620.659058 364.002075,594.519531 363.944336,568.380249 
	C363.940399,566.597473 363.360809,564.816040 362.522064,562.486877 
	C361.633301,562.064209 360.784943,561.427307 359.849731,561.251099 
	C346.330200,558.703491 344.002716,560.617920 343.999420,574.162109 
	C343.993408,598.652771 344.044617,623.143738 343.944763,647.634033 
	C343.908325,656.575317 341.364502,660.206909 333.537781,660.531311 
	C327.520142,660.780762 326.565491,663.585327 326.986816,668.406128 
	C327.117004,669.895325 327.063568,671.403381 327.044891,672.902222 
	C326.992645,677.088928 329.142578,678.725708 333.220825,678.969727 
	C351.438721,680.059753 362.118652,670.467346 363.420898,651.234924 
M585.999390,656.499756 
	C586.017029,661.999512 586.052612,667.499268 586.046265,672.999023 
	C586.041809,676.888855 587.918701,678.876587 591.833252,678.897644 
	C593.499512,678.906616 595.167664,678.986755 596.831604,678.932617 
	C602.675964,678.742310 603.901855,677.610901 603.961914,671.817566 
	C604.058594,662.485291 604.002258,653.151367 604.004944,643.818176 
	C604.008240,632.516663 604.005737,621.215149 604.005737,609.913635 
	C605.293762,611.689209 605.681458,613.559143 605.982849,615.442871 
	C609.035767,634.523315 612.095825,653.602539 615.100586,672.690552 
	C615.744568,676.781677 617.902222,678.949280 622.124634,678.912659 
	C623.957397,678.896790 625.792053,678.989441 627.623230,678.938599 
	C633.778259,678.767639 635.122681,677.517456 636.005615,671.443970 
	C638.641479,653.313538 641.293518,635.185425 643.973938,617.061462 
	C644.115479,616.104736 644.576294,615.195190 644.888489,614.263672 
	C646.000061,619.579102 645.998230,624.702026 646.000427,629.824951 
	C646.006287,643.824768 645.959473,657.824951 646.046875,671.824219 
	C646.083191,677.644226 647.297729,678.728088 653.175049,678.938843 
	C654.340393,678.980652 655.508362,678.975159 656.674622,678.958313 
	C664.036133,678.852234 664.969727,677.953857 664.987671,670.466125 
	C665.026855,654.133057 665.004700,637.799805 665.004272,621.466675 
	C665.003784,603.800171 665.028259,586.133667 664.982178,568.467285 
	C664.964783,561.781311 664.205627,561.081116 657.427673,561.016785 
	C652.928223,560.973999 648.424805,561.128235 643.928955,560.996704 
	C639.849426,560.877380 637.778442,562.756409 637.201294,566.719727 
	C635.161133,580.729431 633.130920,594.741516 630.944336,608.728760 
	C629.576782,617.476196 627.935608,626.180725 626.417175,634.904541 
	C624.908569,633.141174 624.389709,631.414612 624.103882,629.650330 
	C620.748047,608.930847 617.288879,588.226257 614.199707,567.466797 
	C613.477356,562.612671 611.321350,560.796875 606.680908,560.985596 
	C602.854187,561.141174 599.015625,560.990601 595.182434,561.006836 
	C586.569397,561.043274 586.015015,561.554993 586.009094,570.000793 
	C585.989014,598.500488 586.000183,627.000244 585.999390,656.499756 
M787.000000,604.498840 
	C787.000000,610.185181 787.000000,615.871521 787.000000,621.557861 
	C786.564270,621.577698 786.128540,621.597473 785.692810,621.617310 
	C785.293030,620.398071 784.828918,619.195801 784.503296,617.957092 
	C780.692688,603.461182 777.060059,588.916321 773.064087,574.471924 
	C768.959167,559.633850 771.189453,561.096924 756.060852,561.001892 
	C754.728210,560.993530 753.395020,560.987061 752.062805,561.015015 
	C745.925476,561.143677 745.063843,561.906372 745.030823,567.968018 
	C744.962769,580.461853 745.000671,592.956238 745.000732,605.450439 
	C745.000854,627.273682 744.946838,649.097229 745.094116,670.919495 
	C745.109680,673.229553 745.936279,677.286072 747.040527,677.526245 
	C751.279236,678.448181 755.927551,678.817627 760.111328,677.927795 
	C761.542542,677.623352 762.840576,673.023743 762.868591,670.372437 
	C763.092468,649.217896 762.991089,628.060059 763.008240,606.903198 
	C763.009583,605.197815 763.150879,603.492493 763.227112,601.787170 
	C764.234924,602.541382 764.566406,603.289978 764.774475,604.071533 
	C770.343140,624.992615 775.948792,645.904053 781.438721,666.845825 
	C784.712708,679.334839 784.629578,679.356628 797.503723,678.951477 
	C803.767090,678.754333 804.944763,677.742371 804.953308,671.655640 
	C805.001770,637.171814 805.000610,602.687683 804.955200,568.203796 
	C804.947205,562.146362 803.900330,561.196838 798.018372,561.024841 
	C796.686768,560.985901 795.352722,560.989197 794.020569,561.016357 
	C787.935059,561.140503 787.065918,561.926147 787.030762,568.015991 
	C786.962585,579.843445 787.004028,591.671570 787.000000,604.498840 
M1067.330200,637.376770 
	C1065.016968,632.890137 1063.061768,628.161377 1060.253418,624.009644 
	C1058.626099,621.603943 1057.992920,620.214783 1060.415405,618.263733 
	C1065.793579,613.932312 1067.523682,607.775513 1067.741333,601.363708 
	C1067.977173,594.407715 1067.797607,587.362732 1066.944458,580.462219 
	C1065.628418,569.817688 1059.261597,563.035278 1048.512939,561.828003 
	C1038.962769,560.755371 1029.240845,561.124512 1019.593140,561.033997 
	C1011.738770,560.960205 1011.026550,561.731812 1011.020569,569.591919 
	C1010.995911,601.910278 1011.006836,634.228577 1011.007324,666.546936 
	C1011.007507,679.129028 1011.357727,679.463196 1023.875305,678.941772 
	C1029.695801,678.699280 1030.906616,677.589539 1030.956421,671.762146 
	C1031.049072,660.934509 1030.965698,650.105652 1031.015991,639.277527 
	C1031.053101,631.304932 1034.371216,629.170166 1041.731323,632.368347 
	C1045.869263,634.166382 1047.611694,637.666321 1047.841064,641.925781 
	C1048.055664,645.913696 1047.959106,649.918274 1048.003296,653.915527 
	C1048.065918,659.577637 1047.857788,665.259766 1048.269897,670.896484 
	C1048.723999,677.109375 1050.663208,678.711731 1056.809937,678.918701 
	C1059.470581,679.008301 1062.140015,678.936035 1064.802490,678.847229 
	C1068.199219,678.733948 1069.432495,677.049927 1068.933960,673.608215 
	C1068.387695,669.837097 1068.152344,666.005127 1068.029785,662.191711 
	C1067.773071,654.207886 1067.679443,646.218872 1067.330200,637.376770 
M245.347672,566.069702 
	C239.700729,564.386414 234.148132,561.900330 228.382980,561.222839 
	C221.157059,560.373718 213.756683,560.984863 206.431732,561.009460 
	C198.477722,561.036194 198.016296,561.489136 198.012207,569.579407 
	C197.995621,602.375732 198.001099,635.171997 198.005676,667.968323 
	C198.007172,678.713501 198.412308,679.097900 209.306396,678.965820 
	C217.064346,678.871704 217.953064,678.028809 217.984650,670.344360 
	C218.029816,659.356995 217.945221,648.368713 218.046692,637.382019 
	C218.098679,631.752747 220.164719,630.251221 225.590591,631.510376 
	C231.598495,632.904724 234.567215,636.444092 234.852676,643.406372 
	C235.132080,650.221252 235.048538,657.055115 234.983643,663.879333 
	C234.821518,680.927612 237.130905,678.956543 251.366776,678.891174 
	C251.532913,678.890442 251.698792,678.866089 251.865051,678.859863 
	C255.068878,678.739807 256.059174,677.032166 255.923386,673.935181 
	C255.501236,664.307129 255.702667,654.632263 254.832565,645.050842 
	C254.332397,639.542908 253.688324,633.016907 250.506561,629.021973 
	C245.568558,622.821777 246.625656,619.210083 250.578979,613.048218 
	C257.335846,602.516602 256.141937,590.273376 253.108887,578.673096 
	C251.964737,574.297119 248.377075,570.559998 245.347672,566.069702 
M291.631317,679.953186 
	C308.939362,679.615356 320.484131,669.970825 320.800568,654.290649 
	C321.270508,631.002747 321.140533,607.694763 320.797699,584.402283 
	C320.657562,574.881592 316.621124,566.587769 307.712219,562.333496 
	C290.468231,554.098877 264.154694,558.839355 264.026672,588.566711 
	C263.937836,609.202026 263.924286,629.838440 264.035278,650.473572 
	C264.129944,668.067627 273.133667,677.875244 291.631317,679.953186 
M935.142395,667.493286 
	C936.426147,662.040588 938.503174,656.633789 938.822266,651.125183 
	C939.418701,640.828003 939.021118,630.471741 938.987183,620.140137 
	C938.962219,612.557434 938.413757,612.056580 930.604126,612.005371 
	C928.271240,611.990112 925.938232,611.999268 923.605286,612.000610 
	C911.877319,612.007507 911.247009,612.745056 912.018677,624.584045 
	C912.217407,627.632446 913.189758,629.435913 916.495361,630.164551 
	C917.871216,630.467957 919.772400,632.575378 919.835754,633.936951 
	C920.145386,640.585205 920.139404,647.269897 919.805420,653.919617 
	C919.534973,659.302185 915.332275,662.155701 910.031433,661.113892 
	C905.535583,660.230408 903.154785,657.223999 903.086914,651.553406 
	C902.945435,639.723633 902.997375,627.891296 903.008728,616.060059 
	C903.018311,606.062500 902.875183,596.058228 903.200684,586.070007 
	C903.394897,580.109619 906.678345,577.109192 911.844666,577.120056 
	C916.949524,577.130798 919.659241,580.194885 919.937805,586.431274 
	C920.079041,589.592407 920.016907,592.762085 920.104431,595.926331 
	C920.202759,599.483032 922.327087,601.267151 925.615601,600.853149 
	C930.046753,600.295349 937.026245,603.885803 938.319092,597.742615 
	C940.215515,588.731262 940.196533,579.062439 934.976501,570.575806 
	C928.771545,560.487854 916.271118,556.444946 902.647827,559.889771 
	C891.384827,562.737732 883.448242,572.400146 883.207764,585.401367 
	C882.788757,608.055786 882.842773,630.727295 883.206177,653.383484 
	C883.341064,661.793823 886.517822,669.602539 893.704651,674.615723 
	C907.089966,683.952576 924.642578,680.992065 935.142395,667.493286 
M868.499023,621.981201 
	C865.696289,603.882446 862.765686,585.801880 860.173950,567.672974 
	C859.457581,562.661682 857.134766,560.753723 852.255188,560.964539 
	C847.266846,561.179871 842.256836,561.162170 837.266357,560.976440 
	C832.566040,560.801636 830.474121,562.773743 829.713745,567.496399 
	C824.341431,600.862976 818.705627,634.187073 813.254150,667.541077 
	C811.475037,678.426880 812.728088,679.645874 823.860718,678.906433 
	C824.690002,678.851318 825.772644,679.029968 826.293945,678.582825 
	C827.925842,677.183228 829.722351,675.744080 830.729431,673.919617 
	C831.554932,672.423950 831.364563,670.358276 831.587402,668.540771 
	C833.165527,655.670227 833.374390,657.060608 845.163025,657.012451 
	C854.415833,656.974670 854.841919,657.403259 856.010864,666.611023 
	C857.596008,679.097046 858.083069,679.507385 870.646362,678.942932 
	C876.139954,678.696045 877.132690,677.637207 876.309875,672.204651 
	C873.816467,655.742432 871.226074,639.294983 868.499023,621.981201 
M726.629395,678.965454 
	C728.293823,678.949524 729.962097,679.000854 731.621887,678.905273 
	C737.053406,678.592224 737.992554,677.364563 737.013306,672.027039 
	C736.322876,668.263794 735.581055,664.508545 734.974854,660.731628 
	C729.992004,629.684692 724.976746,598.642761 720.134644,567.573792 
	C719.412598,562.940735 717.387878,560.786255 712.621704,560.974060 
	C707.635742,561.170471 702.627869,561.190979 697.644348,560.964294 
	C692.664062,560.737732 690.573120,562.936462 689.821106,567.804810 
	C684.689758,601.019226 679.345215,634.200684 674.088013,667.395752 
	C672.230103,679.126221 673.024780,679.884094 685.001038,678.938477 
	C688.534485,678.659424 690.561279,677.189514 690.971497,673.572388 
	C691.327576,670.432434 691.785278,667.300964 692.303833,664.183289 
	C693.362732,657.818054 694.228516,657.047485 700.779358,657.020569 
	C716.840271,656.954651 714.592651,655.947876 716.909180,670.815796 
	C717.986511,677.729919 718.740601,678.540466 726.629395,678.965454 
M486.124725,600.921509 
	C489.803955,600.846802 490.987183,598.629333 490.960205,595.332458 
	C490.931580,591.834412 491.096130,588.327393 490.903809,584.839355 
	C490.076660,569.837769 479.237122,559.322205 464.410675,559.018250 
	C446.780579,558.656799 435.905731,567.026184 435.355499,583.513489 
	C434.566925,607.142029 434.642517,630.831604 435.341522,654.465820 
	C435.783813,669.420898 446.238434,679.041809 460.601868,679.918701 
	C476.002258,680.858948 486.928497,672.937012 490.092773,658.068298 
	C490.981689,653.891296 490.922424,649.472229 490.957275,645.161438 
	C491.057892,632.708740 490.483582,632.331543 477.980408,632.989197 
	C473.761017,633.211121 471.972687,635.089111 472.016602,639.198181 
	C472.064697,643.694519 472.039520,648.196594 471.863312,652.688965 
	C471.714569,656.482056 470.057556,659.441895 466.289612,660.781982 
	C460.205322,662.945984 455.139618,659.274780 455.099762,652.294800 
	C454.975098,630.471130 455.043365,608.646362 455.058075,586.822021 
	C455.058838,585.661926 455.100861,584.462219 455.387726,583.349060 
	C456.360901,579.572876 458.626740,577.206970 462.751007,577.127563 
	C466.801788,577.049561 470.010101,578.405457 471.178375,582.635803 
	C471.659698,584.378845 471.927032,586.237000 471.937805,588.044861 
	C472.015381,601.059631 470.846283,601.199707 486.124725,600.921509 
M374.003845,573.538330 
	C374.007202,605.849609 373.987701,638.160889 374.031250,670.472107 
	C374.041168,677.826294 375.145782,678.904602 382.440033,678.948425 
	C393.099030,679.012451 403.758698,678.977966 414.418060,678.971985 
	C425.894470,678.965515 426.568512,678.143066 426.021179,666.730164 
	C425.830414,662.753296 424.157104,660.981079 420.205444,661.010315 
	C413.377686,661.060852 406.548920,660.959167 399.720551,660.948364 
	C396.091675,660.942627 394.074158,659.302185 394.071442,655.541443 
	C394.066010,648.047302 394.057251,640.553162 394.070770,633.059021 
	C394.076630,629.820251 395.701050,628.112305 398.973877,628.072937 
	C402.137848,628.034912 405.302063,628.004700 408.466217,628.000610 
	C420.065521,627.985718 420.662476,627.272522 420.000275,615.862915 
	C419.773926,611.962769 418.140411,610.020752 414.191223,610.038574 
	C409.528198,610.059570 404.862915,609.906189 400.202148,610.001282 
	C396.119751,610.084534 393.937775,608.510132 394.005463,604.170288 
	C394.106720,597.676514 394.087097,591.179443 394.017975,584.684814 
	C393.975159,580.659180 395.926727,578.960449 399.847076,579.014160 
	C405.009003,579.084900 410.172913,579.008301 415.335968,579.002380 
	C426.062897,578.990173 426.208618,578.843628 425.991669,568.141968 
	C425.863708,561.828796 425.131042,561.055847 418.612091,561.023010 
	C407.619843,560.967590 396.627197,560.999084 385.634705,561.001404 
	C374.026184,561.003845 374.026184,561.007629 374.003845,573.538330 
M950.005676,568.668396 
	C950.005798,602.634583 949.989990,636.600769 950.018555,670.566956 
	C950.024780,677.953430 950.981995,678.899597 958.419189,678.946350 
	C968.741821,679.011230 979.065125,678.973022 989.388184,678.971497 
	C1001.151550,678.969666 1001.452515,678.538940 1001.028198,666.958679 
	C1000.873047,662.725769 999.106445,660.932495 994.932434,660.998413 
	C988.773865,661.095703 982.608093,660.853882 976.452942,661.025452 
	C971.694824,661.158081 969.821472,659.036011 970.008484,654.409302 
	C970.183105,650.087646 970.026855,645.752869 970.032776,641.423889 
	C970.052673,626.896179 968.935913,628.018066 983.601318,627.999573 
	C995.295959,627.984802 995.509094,627.645691 995.030762,615.877258 
	C994.856567,611.592285 992.966248,609.911438 988.849731,609.998230 
	C984.357056,610.092957 979.859924,609.950195 975.364685,609.953064 
	C971.908813,609.955322 970.080505,608.365112 970.085754,604.820312 
	C970.095886,597.994263 970.112793,591.168030 970.071716,584.342224 
	C970.048584,580.501160 972.066711,578.995972 975.701599,579.025696 
	C980.696106,579.066589 985.691284,579.008728 990.686218,579.001526 
	C1001.007385,578.986755 1001.173767,578.816040 1000.989197,568.294128 
	C1000.986267,568.127625 1000.988464,567.961060 1000.984009,567.794617 
	C1000.826843,561.971680 1000.046265,561.072388 994.265015,561.037903 
	C981.777893,560.963501 969.288574,561.127930 956.803345,560.958008 
	C951.915405,560.891479 949.597290,562.780151 950.005676,568.668396 
M533.651733,677.068848 
	C534.099915,674.495361 534.922729,671.923828 534.936768,669.348022 
	C535.045776,649.371277 534.997803,629.393799 535.000488,609.416504 
	C535.001526,601.592041 534.952942,593.767090 535.029663,585.943359 
	C535.088806,579.904663 535.931396,579.145508 542.081421,579.014221 
	C544.411133,578.964478 546.974792,579.526306 549.003418,578.724854 
	C550.917175,577.968933 552.718079,576.028870 553.720703,574.155701 
	C554.490601,572.717346 553.993591,570.572754 553.971313,568.743347 
	C553.888062,561.919983 553.052002,561.047668 546.070312,561.022705 
	C532.086365,560.972656 518.102112,560.984375 504.118073,561.011108 
	C495.875702,561.026794 494.996918,561.952881 495.027374,570.221252 
	C495.055908,577.968994 495.969849,578.910583 503.560547,578.995300 
	C504.892242,579.010193 506.224365,578.990784 507.555939,579.011536 
	C514.230469,579.115723 514.964050,579.793396 514.978149,586.580078 
	C515.018433,605.891418 514.992126,625.202820 514.999084,644.514221 
	C515.002380,653.836853 514.794006,663.169617 515.207520,672.474365 
	C515.300903,674.575195 517.420715,678.180420 518.890015,678.330566 
	C523.542480,678.806091 528.328552,677.973572 533.651733,677.068848 
z"/>
<path fill="#141D14" opacity="1.000000" stroke="none" 
	d="
M585.999390,655.999878 
	C586.000183,627.000244 585.989014,598.500488 586.009094,570.000793 
	C586.015015,561.554993 586.569397,561.043274 595.182434,561.006836 
	C599.015625,560.990601 602.854187,561.141174 606.680908,560.985596 
	C611.321350,560.796875 613.477356,562.612671 614.199707,567.466797 
	C617.288879,588.226257 620.748047,608.930847 624.103882,629.650330 
	C624.389709,631.414612 624.908569,633.141174 626.417175,634.904541 
	C627.935608,626.180725 629.576782,617.476196 630.944336,608.728760 
	C633.130920,594.741516 635.161133,580.729431 637.201294,566.719727 
	C637.778442,562.756409 639.849426,560.877380 643.928955,560.996704 
	C648.424805,561.128235 652.928223,560.973999 657.427673,561.016785 
	C664.205627,561.081116 664.964783,561.781311 664.982178,568.467285 
	C665.028259,586.133667 665.003784,603.800171 665.004272,621.466675 
	C665.004700,637.799805 665.026855,654.133057 664.987671,670.466125 
	C664.969727,677.953857 664.036133,678.852234 656.674622,678.958313 
	C655.508362,678.975159 654.340393,678.980652 653.175049,678.938843 
	C647.297729,678.728088 646.083191,677.644226 646.046875,671.824219 
	C645.959473,657.824951 646.006287,643.824768 646.000427,629.824951 
	C645.998230,624.702026 646.000061,619.579102 644.888489,614.263672 
	C644.576294,615.195190 644.115479,616.104736 643.973938,617.061462 
	C641.293518,635.185425 638.641479,653.313538 636.005615,671.443970 
	C635.122681,677.517456 633.778259,678.767639 627.623230,678.938599 
	C625.792053,678.989441 623.957397,678.896790 622.124634,678.912659 
	C617.902222,678.949280 615.744568,676.781677 615.100586,672.690552 
	C612.095825,653.602539 609.035767,634.523315 605.982849,615.442871 
	C605.681458,613.559143 605.293762,611.689209 604.005737,609.913635 
	C604.005737,621.215149 604.008240,632.516663 604.004944,643.818176 
	C604.002258,653.151367 604.058594,662.485291 603.961914,671.817566 
	C603.901855,677.610901 602.675964,678.742310 596.831604,678.932617 
	C595.167664,678.986755 593.499512,678.906616 591.833252,678.897644 
	C587.918701,678.876587 586.041809,676.888855 586.046265,672.999023 
	C586.052612,667.499268 586.017029,661.999512 585.999390,655.999878 
z"/>
<path fill="#141D14" opacity="1.000000" stroke="none" 
	d="
M787.000000,603.999146 
	C787.004028,591.671570 786.962585,579.843445 787.030762,568.015991 
	C787.065918,561.926147 787.935059,561.140503 794.020569,561.016357 
	C795.352722,560.989197 796.686768,560.985901 798.018372,561.024841 
	C803.900330,561.196838 804.947205,562.146362 804.955200,568.203796 
	C805.000610,602.687683 805.001770,637.171814 804.953308,671.655640 
	C804.944763,677.742371 803.767090,678.754333 797.503723,678.951477 
	C784.629578,679.356628 784.712708,679.334839 781.438721,666.845825 
	C775.948792,645.904053 770.343140,624.992615 764.774475,604.071533 
	C764.566406,603.289978 764.234924,602.541382 763.227112,601.787170 
	C763.150879,603.492493 763.009583,605.197815 763.008240,606.903198 
	C762.991089,628.060059 763.092468,649.217896 762.868591,670.372437 
	C762.840576,673.023743 761.542542,677.623352 760.111328,677.927795 
	C755.927551,678.817627 751.279236,678.448181 747.040527,677.526245 
	C745.936279,677.286072 745.109680,673.229553 745.094116,670.919495 
	C744.946838,649.097229 745.000854,627.273682 745.000732,605.450439 
	C745.000671,592.956238 744.962769,580.461853 745.030823,567.968018 
	C745.063843,561.906372 745.925476,561.143677 752.062805,561.015015 
	C753.395020,560.987061 754.728210,560.993530 756.060852,561.001892 
	C771.189453,561.096924 768.959167,559.633850 773.064087,574.471924 
	C777.060059,588.916321 780.692688,603.461182 784.503296,617.957092 
	C784.828918,619.195801 785.293030,620.398071 785.692810,621.617310 
	C786.128540,621.597473 786.564270,621.577698 787.000000,621.557861 
	C787.000000,615.871521 787.000000,610.185181 787.000000,603.999146 
z"/>
<path fill="#141D14" opacity="1.000000" stroke="none" 
	d="
M1067.424561,637.804382 
	C1067.679443,646.218872 1067.773071,654.207886 1068.029785,662.191711 
	C1068.152344,666.005127 1068.387695,669.837097 1068.933960,673.608215 
	C1069.432495,677.049927 1068.199219,678.733948 1064.802490,678.847229 
	C1062.140015,678.936035 1059.470581,679.008301 1056.809937,678.918701 
	C1050.663208,678.711731 1048.723999,677.109375 1048.269897,670.896484 
	C1047.857788,665.259766 1048.065918,659.577637 1048.003296,653.915527 
	C1047.959106,649.918274 1048.055664,645.913696 1047.841064,641.925781 
	C1047.611694,637.666321 1045.869263,634.166382 1041.731323,632.368347 
	C1034.371216,629.170166 1031.053101,631.304932 1031.015991,639.277527 
	C1030.965698,650.105652 1031.049072,660.934509 1030.956421,671.762146 
	C1030.906616,677.589539 1029.695801,678.699280 1023.875305,678.941772 
	C1011.357727,679.463196 1011.007507,679.129028 1011.007324,666.546936 
	C1011.006836,634.228577 1010.995911,601.910278 1011.020569,569.591919 
	C1011.026550,561.731812 1011.738770,560.960205 1019.593140,561.033997 
	C1029.240845,561.124512 1038.962769,560.755371 1048.512939,561.828003 
	C1059.261597,563.035278 1065.628418,569.817688 1066.944458,580.462219 
	C1067.797607,587.362732 1067.977173,594.407715 1067.741333,601.363708 
	C1067.523682,607.775513 1065.793579,613.932312 1060.415405,618.263733 
	C1057.992920,620.214783 1058.626099,621.603943 1060.253418,624.009644 
	C1063.061768,628.161377 1065.016968,632.890137 1067.424561,637.804382 
M1047.011719,607.182678 
	C1047.002441,599.602356 1047.480469,591.977783 1046.797729,584.458618 
	C1046.400024,580.079163 1042.173340,578.565918 1035.992554,579.042053 
	C1033.070923,579.267212 1031.151123,580.427124 1031.131592,583.520508 
	C1031.077026,592.164246 1030.945312,600.816833 1031.321899,609.445007 
	C1031.387085,610.937500 1033.725098,613.477051 1035.124512,613.555664 
	C1039.797974,613.818359 1044.579468,613.298157 1047.011719,607.182678 
z"/>
<path fill="#141D14" opacity="1.000000" stroke="none" 
	d="
M245.625488,566.300659 
	C248.377075,570.559998 251.964737,574.297119 253.108887,578.673096 
	C256.141937,590.273376 257.335846,602.516602 250.578979,613.048218 
	C246.625656,619.210083 245.568558,622.821777 250.506561,629.021973 
	C253.688324,633.016907 254.332397,639.542908 254.832565,645.050842 
	C255.702667,654.632263 255.501236,664.307129 255.923386,673.935181 
	C256.059174,677.032166 255.068878,678.739807 251.865051,678.859863 
	C251.698792,678.866089 251.532913,678.890442 251.366776,678.891174 
	C237.130905,678.956543 234.821518,680.927612 234.983643,663.879333 
	C235.048538,657.055115 235.132080,650.221252 234.852676,643.406372 
	C234.567215,636.444092 231.598495,632.904724 225.590591,631.510376 
	C220.164719,630.251221 218.098679,631.752747 218.046692,637.382019 
	C217.945221,648.368713 218.029816,659.356995 217.984650,670.344360 
	C217.953064,678.028809 217.064346,678.871704 209.306396,678.965820 
	C198.412308,679.097900 198.007172,678.713501 198.005676,667.968323 
	C198.001099,635.171997 197.995621,602.375732 198.012207,569.579407 
	C198.016296,561.489136 198.477722,561.036194 206.431732,561.009460 
	C213.756683,560.984863 221.157059,560.373718 228.382980,561.222839 
	C234.148132,561.900330 239.700729,564.386414 245.625488,566.300659 
M232.635239,581.924561 
	C231.728836,581.216064 230.922714,580.271851 229.900024,579.836670 
	C222.376068,576.635071 218.038193,579.456482 218.006012,587.512756 
	C217.981369,593.677368 217.973114,599.842224 218.010193,606.006653 
	C218.056519,613.708557 220.792038,615.863647 227.825531,612.715393 
	C230.456970,611.537415 233.290909,608.383362 233.927322,605.641602 
	C235.694855,598.026733 236.153061,590.165039 232.635239,581.924561 
z"/>
<path fill="#141D14" opacity="1.000000" stroke="none" 
	d="
M291.188904,679.939697 
	C273.133667,677.875244 264.129944,668.067627 264.035278,650.473572 
	C263.924286,629.838440 263.937836,609.202026 264.026672,588.566711 
	C264.154694,558.839355 290.468231,554.098877 307.712219,562.333496 
	C316.621124,566.587769 320.657562,574.881592 320.797699,584.402283 
	C321.140533,607.694763 321.270508,631.002747 320.800568,654.290649 
	C320.484131,669.970825 308.939362,679.615356 291.188904,679.939697 
M283.999969,639.496521 
	C284.002167,642.656006 283.984955,645.815613 284.010345,648.974915 
	C284.075531,657.088257 287.313477,661.809753 292.710846,661.697327 
	C298.389862,661.579041 300.966400,657.824402 300.985291,649.277283 
	C301.029724,629.156555 301.008789,609.035645 300.985291,588.914795 
	C300.983154,587.091797 300.976654,585.226990 300.613647,583.455017 
	C299.863220,579.791504 297.487579,577.664917 293.755554,577.237427 
	C289.900177,576.795898 286.650269,577.974731 285.310181,581.827393 
	C284.458435,584.276001 284.080017,587.003357 284.062347,589.609558 
	C283.951782,605.905029 284.002594,622.201660 283.999969,639.496521 
z"/>
<path fill="#141D14" opacity="1.000000" stroke="none" 
	d="
M934.958862,667.813354 
	C924.642578,680.992065 907.089966,683.952576 893.704651,674.615723 
	C886.517822,669.602539 883.341064,661.793823 883.206177,653.383484 
	C882.842773,630.727295 882.788757,608.055786 883.207764,585.401367 
	C883.448242,572.400146 891.384827,562.737732 902.647827,559.889771 
	C916.271118,556.444946 928.771545,560.487854 934.976501,570.575806 
	C940.196533,579.062439 940.215515,588.731262 938.319092,597.742615 
	C937.026245,603.885803 930.046753,600.295349 925.615601,600.853149 
	C922.327087,601.267151 920.202759,599.483032 920.104431,595.926331 
	C920.016907,592.762085 920.079041,589.592407 919.937805,586.431274 
	C919.659241,580.194885 916.949524,577.130798 911.844666,577.120056 
	C906.678345,577.109192 903.394897,580.109619 903.200684,586.070007 
	C902.875183,596.058228 903.018311,606.062500 903.008728,616.060059 
	C902.997375,627.891296 902.945435,639.723633 903.086914,651.553406 
	C903.154785,657.223999 905.535583,660.230408 910.031433,661.113892 
	C915.332275,662.155701 919.534973,659.302185 919.805420,653.919617 
	C920.139404,647.269897 920.145386,640.585205 919.835754,633.936951 
	C919.772400,632.575378 917.871216,630.467957 916.495361,630.164551 
	C913.189758,629.435913 912.217407,627.632446 912.018677,624.584045 
	C911.247009,612.745056 911.877319,612.007507 923.605286,612.000610 
	C925.938232,611.999268 928.271240,611.990112 930.604126,612.005371 
	C938.413757,612.056580 938.962219,612.557434 938.987183,620.140137 
	C939.021118,630.471741 939.418701,640.828003 938.822266,651.125183 
	C938.503174,656.633789 936.426147,662.040588 934.958862,667.813354 
z"/>
<path fill="#141D14" opacity="1.000000" stroke="none" 
	d="
M868.586243,622.411499 
	C871.226074,639.294983 873.816467,655.742432 876.309875,672.204651 
	C877.132690,677.637207 876.139954,678.696045 870.646362,678.942932 
	C858.083069,679.507385 857.596008,679.097046 856.010864,666.611023 
	C854.841919,657.403259 854.415833,656.974670 845.163025,657.012451 
	C833.374390,657.060608 833.165527,655.670227 831.587402,668.540771 
	C831.364563,670.358276 831.554932,672.423950 830.729431,673.919617 
	C829.722351,675.744080 827.925842,677.183228 826.293945,678.582825 
	C825.772644,679.029968 824.690002,678.851318 823.860718,678.906433 
	C812.728088,679.645874 811.475037,678.426880 813.254150,667.541077 
	C818.705627,634.187073 824.341431,600.862976 829.713745,567.496399 
	C830.474121,562.773743 832.566040,560.801636 837.266357,560.976440 
	C842.256836,561.162170 847.266846,561.179871 852.255188,560.964539 
	C857.134766,560.753723 859.457581,562.661682 860.173950,567.672974 
	C862.765686,585.801880 865.696289,603.882446 868.586243,622.411499 
M844.283569,592.036682 
	C844.173340,591.913757 844.082458,591.758850 843.947266,591.677124 
	C843.819031,591.599548 843.529663,591.533813 843.507263,591.573486 
	C843.114563,592.269653 842.524902,592.949951 842.416687,593.697205 
	C840.394897,607.659058 838.323669,621.616333 836.638611,635.619873 
	C836.487732,636.874084 838.665710,638.960144 840.220215,639.709412 
	C841.711548,640.428162 843.798950,639.915955 845.624451,639.934204 
	C849.785217,639.975891 851.225708,637.839905 850.631287,633.874817 
	C848.565125,620.091614 846.553894,606.300171 844.283569,592.036682 
z"/>
<path fill="#141D14" opacity="1.000000" stroke="none" 
	d="
M726.172668,678.960693 
	C718.740601,678.540466 717.986511,677.729919 716.909180,670.815796 
	C714.592651,655.947876 716.840271,656.954651 700.779358,657.020569 
	C694.228516,657.047485 693.362732,657.818054 692.303833,664.183289 
	C691.785278,667.300964 691.327576,670.432434 690.971497,673.572388 
	C690.561279,677.189514 688.534485,678.659424 685.001038,678.938477 
	C673.024780,679.884094 672.230103,679.126221 674.088013,667.395752 
	C679.345215,634.200684 684.689758,601.019226 689.821106,567.804810 
	C690.573120,562.936462 692.664062,560.737732 697.644348,560.964294 
	C702.627869,561.190979 707.635742,561.170471 712.621704,560.974060 
	C717.387878,560.786255 719.412598,562.940735 720.134644,567.573792 
	C724.976746,598.642761 729.992004,629.684692 734.974854,660.731628 
	C735.581055,664.508545 736.322876,668.263794 737.013306,672.027039 
	C737.992554,677.364563 737.053406,678.592224 731.621887,678.905273 
	C729.962097,679.000854 728.293823,678.949524 726.172668,678.960693 
M696.901428,639.050049 
	C700.146118,639.346252 703.385437,639.771118 706.636841,639.905090 
	C710.452271,640.062317 711.989319,638.333923 711.352478,634.319702 
	C709.556396,622.997192 708.016846,611.634155 706.351318,600.290771 
	C705.863281,596.966919 705.291992,593.655334 704.758850,590.338196 
	C703.521118,591.130493 703.185547,591.858093 703.076782,592.618225 
	C700.889893,607.896606 698.729065,623.178650 696.901428,639.050049 
z"/>
<path fill="#141D14" opacity="1.000000" stroke="none" 
	d="
M485.671600,600.942383 
	C470.846283,601.199707 472.015381,601.059631 471.937805,588.044861 
	C471.927032,586.237000 471.659698,584.378845 471.178375,582.635803 
	C470.010101,578.405457 466.801788,577.049561 462.751007,577.127563 
	C458.626740,577.206970 456.360901,579.572876 455.387726,583.349060 
	C455.100861,584.462219 455.058838,585.661926 455.058075,586.822021 
	C455.043365,608.646362 454.975098,630.471130 455.099762,652.294800 
	C455.139618,659.274780 460.205322,662.945984 466.289612,660.781982 
	C470.057556,659.441895 471.714569,656.482056 471.863312,652.688965 
	C472.039520,648.196594 472.064697,643.694519 472.016602,639.198181 
	C471.972687,635.089111 473.761017,633.211121 477.980408,632.989197 
	C490.483582,632.331543 491.057892,632.708740 490.957275,645.161438 
	C490.922424,649.472229 490.981689,653.891296 490.092773,658.068298 
	C486.928497,672.937012 476.002258,680.858948 460.601868,679.918701 
	C446.238434,679.041809 435.783813,669.420898 435.341522,654.465820 
	C434.642517,630.831604 434.566925,607.142029 435.355499,583.513489 
	C435.905731,567.026184 446.780579,558.656799 464.410675,559.018250 
	C479.237122,559.322205 490.076660,569.837769 490.903809,584.839355 
	C491.096130,588.327393 490.931580,591.834412 490.960205,595.332458 
	C490.987183,598.629333 489.803955,600.846802 485.671600,600.942383 
z"/>
<path fill="#141D14" opacity="1.000000" stroke="none" 
	d="
M374.003906,573.046875 
	C374.026184,561.007629 374.026184,561.003845 385.634705,561.001404 
	C396.627197,560.999084 407.619843,560.967590 418.612091,561.023010 
	C425.131042,561.055847 425.863708,561.828796 425.991669,568.141968 
	C426.208618,578.843628 426.062897,578.990173 415.335968,579.002380 
	C410.172913,579.008301 405.009003,579.084900 399.847076,579.014160 
	C395.926727,578.960449 393.975159,580.659180 394.017975,584.684814 
	C394.087097,591.179443 394.106720,597.676514 394.005463,604.170288 
	C393.937775,608.510132 396.119751,610.084534 400.202148,610.001282 
	C404.862915,609.906189 409.528198,610.059570 414.191223,610.038574 
	C418.140411,610.020752 419.773926,611.962769 420.000275,615.862915 
	C420.662476,627.272522 420.065521,627.985718 408.466217,628.000610 
	C405.302063,628.004700 402.137848,628.034912 398.973877,628.072937 
	C395.701050,628.112305 394.076630,629.820251 394.070770,633.059021 
	C394.057251,640.553162 394.066010,648.047302 394.071442,655.541443 
	C394.074158,659.302185 396.091675,660.942627 399.720551,660.948364 
	C406.548920,660.959167 413.377686,661.060852 420.205444,661.010315 
	C424.157104,660.981079 425.830414,662.753296 426.021179,666.730164 
	C426.568512,678.143066 425.894470,678.965515 414.418060,678.971985 
	C403.758698,678.977966 393.099030,679.012451 382.440033,678.948425 
	C375.145782,678.904602 374.041168,677.826294 374.031250,670.472107 
	C373.987701,638.160889 374.007202,605.849609 374.003906,573.046875 
z"/>
<path fill="#141D14" opacity="1.000000" stroke="none" 
	d="
M950.010132,568.197998 
	C949.597290,562.780151 951.915405,560.891479 956.803345,560.958008 
	C969.288574,561.127930 981.777893,560.963501 994.265015,561.037903 
	C1000.046265,561.072388 1000.826843,561.971680 1000.984009,567.794617 
	C1000.988464,567.961060 1000.986267,568.127625 1000.989197,568.294128 
	C1001.173767,578.816040 1001.007385,578.986755 990.686218,579.001526 
	C985.691284,579.008728 980.696106,579.066589 975.701599,579.025696 
	C972.066711,578.995972 970.048584,580.501160 970.071716,584.342224 
	C970.112793,591.168030 970.095886,597.994263 970.085754,604.820312 
	C970.080505,608.365112 971.908813,609.955322 975.364685,609.953064 
	C979.859924,609.950195 984.357056,610.092957 988.849731,609.998230 
	C992.966248,609.911438 994.856567,611.592285 995.030762,615.877258 
	C995.509094,627.645691 995.295959,627.984802 983.601318,627.999573 
	C968.935913,628.018066 970.052673,626.896179 970.032776,641.423889 
	C970.026855,645.752869 970.183105,650.087646 970.008484,654.409302 
	C969.821472,659.036011 971.694824,661.158081 976.452942,661.025452 
	C982.608093,660.853882 988.773865,661.095703 994.932434,660.998413 
	C999.106445,660.932495 1000.873047,662.725769 1001.028198,666.958679 
	C1001.452515,678.538940 1001.151550,678.969666 989.388184,678.971497 
	C979.065125,678.973022 968.741821,679.011230 958.419189,678.946350 
	C950.981995,678.899597 950.024780,677.953430 950.018555,670.566956 
	C949.989990,636.600769 950.005798,602.634583 950.010132,568.197998 
z"/>
<path fill="#141D14" opacity="1.000000" stroke="none" 
	d="
M533.357361,677.357849 
	C528.328552,677.973572 523.542480,678.806091 518.890015,678.330566 
	C517.420715,678.180420 515.300903,674.575195 515.207520,672.474365 
	C514.794006,663.169617 515.002380,653.836853 514.999084,644.514221 
	C514.992126,625.202820 515.018433,605.891418 514.978149,586.580078 
	C514.964050,579.793396 514.230469,579.115723 507.555939,579.011536 
	C506.224365,578.990784 504.892242,579.010193 503.560547,578.995300 
	C495.969849,578.910583 495.055908,577.968994 495.027374,570.221252 
	C494.996918,561.952881 495.875702,561.026794 504.118073,561.011108 
	C518.102112,560.984375 532.086365,560.972656 546.070312,561.022705 
	C553.052002,561.047668 553.888062,561.919983 553.971313,568.743347 
	C553.993591,570.572754 554.490601,572.717346 553.720703,574.155701 
	C552.718079,576.028870 550.917175,577.968933 549.003418,578.724854 
	C546.974792,579.526306 544.411133,578.964478 542.081421,579.014221 
	C535.931396,579.145508 535.088806,579.904663 535.029663,585.943359 
	C534.952942,593.767090 535.001526,601.592041 535.000488,609.416504 
	C534.997803,629.393799 535.045776,649.371277 534.936768,669.348022 
	C534.922729,671.923828 534.099915,674.495361 533.357361,677.357849 
z"/>
<path fill="#141D14" opacity="1.000000" stroke="none" 
	d="
M363.049438,651.966125 
	C362.118652,670.467346 351.438721,680.059753 333.220825,678.969727 
	C329.142578,678.725708 326.992645,677.088928 327.044891,672.902222 
	C327.063568,671.403381 327.117004,669.895325 326.986816,668.406128 
	C326.565491,663.585327 327.520142,660.780762 333.537781,660.531311 
	C341.364502,660.206909 343.908325,656.575317 343.944763,647.634033 
	C344.044617,623.143738 343.993408,598.652771 343.999420,574.162109 
	C344.002716,560.617920 346.330200,558.703491 359.849731,561.251099 
	C360.784943,561.427307 361.633301,562.064209 362.775024,563.226074 
	C363.035095,593.298828 363.042267,622.632507 363.049438,651.966125 
z"/>
<path fill="#004000" opacity="1.000000" stroke="none" 
	d="
M363.235168,651.600525 
	C363.042267,622.632507 363.035095,593.298828 363.038422,563.499573 
	C363.360809,564.816040 363.940399,566.597473 363.944336,568.380249 
	C364.002075,594.519531 363.992188,620.659058 363.958344,646.798401 
	C363.956421,648.277466 363.608032,649.756104 363.235168,651.600525 
z"/>
<path fill="#000000" opacity="1.000000" stroke="none" 
	d="
M1046.882324,607.563843 
	C1044.579468,613.298157 1039.797974,613.818359 1035.124512,613.555664 
	C1033.725098,613.477051 1031.387085,610.937500 1031.321899,609.445007 
	C1030.945312,600.816833 1031.077026,592.164246 1031.131592,583.520508 
	C1031.151123,580.427124 1033.070923,579.267212 1035.992554,579.042053 
	C1042.173340,578.565918 1046.400024,580.079163 1046.797729,584.458618 
	C1047.480469,591.977783 1047.002441,599.602356 1046.882324,607.563843 
z"/>
<path fill="#000000" opacity="1.000000" stroke="none" 
	d="
M232.843109,582.260498 
	C236.153061,590.165039 235.694855,598.026733 233.927322,605.641602 
	C233.290909,608.383362 230.456970,611.537415 227.825531,612.715393 
	C220.792038,615.863647 218.056519,613.708557 218.010193,606.006653 
	C217.973114,599.842224 217.981369,593.677368 218.006012,587.512756 
	C218.038193,579.456482 222.376068,576.635071 229.900024,579.836670 
	C230.922714,580.271851 231.728836,581.216064 232.843109,582.260498 
z"/>
<path fill="#000000" opacity="1.000000" stroke="none" 
	d="
M284.000000,638.997192 
	C284.002594,622.201660 283.951782,605.905029 284.062347,589.609558 
	C284.080017,587.003357 284.458435,584.276001 285.310181,581.827393 
	C286.650269,577.974731 289.900177,576.795898 293.755554,577.237427 
	C297.487579,577.664917 299.863220,579.791504 300.613647,583.455017 
	C300.976654,585.226990 300.983154,587.091797 300.985291,588.914795 
	C301.008789,609.035645 301.029724,629.156555 300.985291,649.277283 
	C300.966400,657.824402 298.389862,661.579041 292.710846,661.697327 
	C287.313477,661.809753 284.075531,657.088257 284.010345,648.974915 
	C283.984955,645.815613 284.002167,642.656006 284.000000,638.997192 
z"/>
<path fill="#000000" opacity="1.000000" stroke="none" 
	d="
M844.402710,592.274292 
	C846.553894,606.300171 848.565125,620.091614 850.631287,633.874817 
	C851.225708,637.839905 849.785217,639.975891 845.624451,639.934204 
	C843.798950,639.915955 841.711548,640.428162 840.220215,639.709412 
	C838.665710,638.960144 836.487732,636.874084 836.638611,635.619873 
	C838.323669,621.616333 840.394897,607.659058 842.416687,593.697205 
	C842.524902,592.949951 843.114563,592.269653 843.507263,591.573486 
	C843.529663,591.533813 843.819031,591.599548 843.947266,591.677124 
	C844.082458,591.758850 844.173340,591.913757 844.402710,592.274292 
z"/>
<path fill="#000000" opacity="1.000000" stroke="none" 
	d="
M696.732239,638.755005 
	C698.729065,623.178650 700.889893,607.896606 703.076782,592.618225 
	C703.185547,591.858093 703.521118,591.130493 704.758850,590.338196 
	C705.291992,593.655334 705.863281,596.966919 706.351318,600.290771 
	C708.016846,611.634155 709.556396,622.997192 711.352478,634.319702 
	C711.989319,638.333923 710.452271,640.062317 706.636841,639.905090 
	C703.385437,639.771118 700.146118,639.346252 696.732239,638.755005 
z"/>
</svg>